<svg width="22" height="22" viewBox="0 0 22 22" fill="none" xmlns="http://www.w3.org/2000/svg">
<path fill-rule="evenodd" clip-rule="evenodd" d="M17.5158 17.5632C18.0567 16.7382 18.2583 16.3165 18.6708 15.3907C15.6275 14.2357 15.1417 9.89984 18.1483 8.24067C17.2317 7.08567 15.9392 6.4165 14.72 6.4165C13.84 6.4165 13.235 6.64567 12.6942 6.85651C12.2358 7.03067 11.8233 7.1865 11.31 7.1865C10.76 7.1865 10.2742 7.01233 9.76083 6.829C9.21083 6.62733 8.62416 6.4165 7.89083 6.4165C6.52499 6.4165 5.0675 7.25067 4.14166 8.68067C2.84 10.6973 3.06916 14.474 5.16833 17.7007C5.91999 18.8557 6.92833 20.1482 8.23917 20.1665C8.78917 20.1757 9.14666 20.0107 9.54083 19.8365C9.99 19.6348 10.4758 19.4148 11.3283 19.4148C12.1808 19.4057 12.6575 19.6348 13.1067 19.8365C13.4917 20.0107 13.84 20.1757 14.3808 20.1665C15.7008 20.1482 16.7642 18.7182 17.5158 17.5632Z" fill="white"/>
<path opacity="0.4" fill-rule="evenodd" clip-rule="evenodd" d="M14.5194 1.8335C14.6661 2.84183 14.2536 3.84099 13.7128 4.53766C13.1353 5.28933 12.1269 5.876 11.1553 5.83933C10.9811 4.86767 11.4303 3.86849 11.9803 3.19933C12.5944 2.46599 13.6303 1.89766 14.5194 1.8335Z" fill="white"/>
</svg>
