<svg width="72" height="72" viewBox="0 0 72 72" fill="none" xmlns="http://www.w3.org/2000/svg">
<path fill-rule="evenodd" clip-rule="evenodd" d="M36 72C55.8828 72 72 55.8828 72 36C72 16.1172 55.8828 0 36 0C16.1172 0 0 16.1172 0 36C0 55.8828 16.1172 72 36 72ZM30.6 53.9676C30.6 50.8464 32.9724 48.6 35.9676 48.6C39.0276 48.6 41.4 50.8464 41.4 53.9676C41.4 57.0888 39.0276 59.4 35.9676 59.4C32.9724 59.4 30.6 57.0888 30.6 53.9676ZM33.0192 14.4C32.7763 14.4003 32.536 14.4497 32.3127 14.5452C32.0894 14.6408 31.8878 14.7806 31.7199 14.9562C31.5521 15.1318 31.4215 15.3395 31.3361 15.5669C31.2506 15.7942 31.2121 16.0365 31.2228 16.2792L32.3244 41.4792C32.3448 41.9427 32.5434 42.3805 32.8788 42.7011C33.2142 43.0217 33.6604 43.2004 34.1244 43.2H37.8792C38.3432 43.2004 38.7894 43.0217 39.1248 42.7011C39.4602 42.3805 39.6588 41.9427 39.6792 41.4792L40.7772 16.2792C40.7879 16.0362 40.7493 15.7936 40.6636 15.566C40.5779 15.3384 40.4471 15.1305 40.2788 14.9549C40.1106 14.7793 39.9085 14.6396 39.6848 14.5442C39.4611 14.4488 39.2204 14.3998 38.9772 14.4H33.0192Z" fill="#F65858"/>
</svg>
