<svg width="10" height="19" viewBox="0 0 10 19" fill="none" xmlns="http://www.w3.org/2000/svg">
<path d="M9.5 3.44824H6.5C5.9477 3.44824 5.5 3.89596 5.5 4.44824V7.44824H9.5C9.6137 7.44572 9.7216 7.49864 9.7892 7.59014C9.8568 7.68164 9.8758 7.80024 9.84 7.90824L9.1 10.1082C9.0318 10.3101 8.8431 10.4466 8.63 10.4482H5.5V17.9482C5.5 18.2243 5.2761 18.4482 5 18.4482H2.5C2.22386 18.4482 2 18.2243 2 17.9482V10.4482H0.5C0.22386 10.4482 0 10.2243 0 9.94824V7.94824C0 7.67214 0.22386 7.44824 0.5 7.44824H2V4.44824C2 2.2391 3.7909 0.448242 6 0.448242H9.5C9.7761 0.448242 10 0.672102 10 0.948242V2.94824C10 3.22438 9.7761 3.44824 9.5 3.44824Z" fill="white"/>
</svg>
