<svg width="22" height="22" viewBox="0 0 22 22" fill="none" xmlns="http://www.w3.org/2000/svg">
<g clip-path="url(#clip0_3_1975)">
<path d="M7.66315 0.723606C5.46501 1.48616 3.56933 2.93352 2.25457 4.85308C0.939809 6.77264 0.275259 9.06323 0.358534 11.3884C0.441809 13.7136 1.26852 15.9507 2.71723 17.7713C4.16595 19.5919 6.16031 20.8999 8.40737 21.5033C10.2291 21.9734 12.1378 21.994 13.9692 21.5635C15.6284 21.1908 17.1623 20.3936 18.4208 19.25C19.7306 18.0234 20.6814 16.463 21.1708 14.7366C21.7028 12.8591 21.7975 10.8847 21.4475 8.96501H11.2175V13.2086H17.1421C17.0236 13.8854 16.7699 14.5314 16.396 15.1079C16.0222 15.6844 15.5358 16.1795 14.9661 16.5636C14.2427 17.0422 13.4271 17.3642 12.5719 17.5089C11.7141 17.6684 10.8343 17.6684 9.97659 17.5089C9.10722 17.3292 8.28482 16.9704 7.56174 16.4553C6.40012 15.6331 5.52791 14.4649 5.06956 13.1175C4.60346 11.7449 4.60346 10.2568 5.06956 8.88423C5.39582 7.9221 5.93518 7.04609 6.64737 6.32157C7.46238 5.47723 8.49422 4.87369 9.62967 4.57717C10.7651 4.28065 11.9603 4.30261 13.0841 4.64064C13.962 4.91012 14.7648 5.38097 15.4285 6.01564C16.0965 5.35105 16.7634 4.68475 17.4291 4.01673C17.7728 3.65751 18.1475 3.31548 18.4861 2.94767C17.473 2.00489 16.2839 1.2713 14.9867 0.788918C12.6247 -0.0687555 10.0401 -0.0918046 7.66315 0.723606Z" fill="white"/>
<path d="M7.66609 0.723464C10.0429 -0.0925001 12.6274 -0.0700577 14.9897 0.787058C16.287 1.27271 17.4757 2.00984 18.4873 2.95612C18.1436 3.32393 17.7809 3.66768 17.4303 4.02518C16.7634 4.69091 16.0971 5.35435 15.4314 6.0155C14.7677 5.38083 13.9649 4.90998 13.087 4.6405C11.9636 4.30128 10.7685 4.27806 9.63272 4.57337C8.49697 4.86867 7.4645 5.4711 6.64859 6.31456C5.9364 7.03907 5.39704 7.91509 5.07078 8.87721L1.50781 6.11862C2.78314 3.58959 4.99129 1.65507 7.66609 0.723464Z" fill="#E33629"/>
<path d="M0.560776 8.85147C0.752282 7.90236 1.07022 6.98323 1.50609 6.11865L5.06906 8.88412C4.60296 10.2567 4.60296 11.7448 5.06906 13.1174C3.88197 14.0341 2.69432 14.9553 1.50609 15.8812C0.414942 13.7092 0.0821606 11.2345 0.560776 8.85147Z" fill="#F8BD00"/>
<path d="M11.2195 8.96338H21.4495C21.7994 10.8831 21.7048 12.8575 21.1728 14.7349C20.6834 16.4614 19.7326 18.0218 18.4228 19.2484C17.273 18.3512 16.118 17.4609 14.9681 16.5637C15.5382 16.1792 16.0247 15.6835 16.3986 15.1064C16.7725 14.5293 17.0261 13.8827 17.144 13.2053H11.2195C11.2178 11.7924 11.2195 10.3779 11.2195 8.96338Z" fill="#587DBD"/>
<path d="M1.50391 15.8814C2.69214 14.9648 3.87979 14.0435 5.06688 13.1177C5.52614 14.4655 6.3996 15.6337 7.5625 16.4555C8.28783 16.9681 9.11201 17.324 9.9825 17.5005C10.8403 17.66 11.7201 17.66 12.5778 17.5005C13.4331 17.3557 14.2486 17.0337 14.972 16.5552C16.1219 17.4524 17.2769 18.3427 18.4267 19.2399C17.1684 20.3841 15.6345 21.1818 13.9752 21.555C12.1437 21.9856 10.235 21.9649 8.41328 21.4949C6.97246 21.1102 5.62663 20.432 4.46016 19.5028C3.22551 18.5226 2.21711 17.2873 1.50391 15.8814Z" fill="#319F43"/>
</g>
<defs>
<clipPath id="clip0_3_1975">
<rect width="22" height="22" fill="white"/>
</clipPath>
</defs>
</svg>
