<svg width="18" height="19" viewBox="0 0 18 19" fill="none" xmlns="http://www.w3.org/2000/svg">
<path fill-rule="evenodd" clip-rule="evenodd" d="M13 0.448242H5C2.23858 0.448242 0 2.68682 0 5.44824V13.4482C0 16.2096 2.23858 18.4482 5 18.4482H13C15.7614 18.4482 18 16.2096 18 13.4482V5.44824C18 2.68682 15.7614 0.448242 13 0.448242ZM16.25 13.4482C16.2445 15.2408 14.7926 16.6927 13 16.6982H5C3.20735 16.6927 1.75549 15.2408 1.75 13.4482V5.44824C1.75549 3.65559 3.20735 2.20373 5 2.19824H13C14.7926 2.20373 16.2445 3.65559 16.25 5.44824V13.4482ZM13.75 5.69824C14.3023 5.69824 14.75 5.25052 14.75 4.69824C14.75 4.14596 14.3023 3.69824 13.75 3.69824C13.1977 3.69824 12.75 4.14596 12.75 4.69824C12.75 5.25052 13.1977 5.69824 13.75 5.69824ZM9 4.94824C6.51472 4.94824 4.5 6.96296 4.5 9.44824C4.5 11.9335 6.51472 13.9482 9 13.9482C11.4853 13.9482 13.5 11.9335 13.5 9.44824C13.5027 8.25394 13.0294 7.10781 12.1849 6.26332C11.3404 5.41883 10.1943 4.94558 9 4.94824ZM6.25 9.44824C6.25 10.967 7.4812 12.1982 9 12.1982C10.5188 12.1982 11.75 10.967 11.75 9.44824C11.75 7.92944 10.5188 6.69824 9 6.69824C7.4812 6.69824 6.25 7.92944 6.25 9.44824Z" fill="white"/>
</svg>
