<svg width="18" height="19" viewBox="0 0 18 19" fill="none" xmlns="http://www.w3.org/2000/svg">
<path fill-rule="evenodd" clip-rule="evenodd" d="M2 0.448242H16C17.1046 0.448242 18 1.34367 18 2.44824V16.4482C18 17.5528 17.1046 18.4482 16 18.4482H2C0.89543 18.4482 0 17.5528 0 16.4482V2.44824C0 1.34367 0.89543 0.448242 2 0.448242ZM5 15.4482C5.27614 15.4482 5.5 15.2243 5.5 14.9482V7.94824C5.5 7.67214 5.27614 7.44824 5 7.44824H3.5C3.22386 7.44824 3 7.67214 3 7.94824V14.9482C3 15.2243 3.22386 15.4482 3.5 15.4482H5ZM4.25 6.44824C3.42157 6.44824 2.75 5.77667 2.75 4.94824C2.75 4.11981 3.42157 3.44824 4.25 3.44824C5.07843 3.44824 5.75 4.11981 5.75 4.94824C5.75 5.77667 5.07843 6.44824 4.25 6.44824ZM14.5 15.4482C14.7761 15.4482 15 15.2243 15 14.9482V10.3482C15.0325 8.75904 13.8576 7.40276 12.28 7.20824C11.177 7.10749 10.1083 7.62264 9.5 8.54824V7.94824C9.5 7.67214 9.2761 7.44824 9 7.44824H7.5C7.2239 7.44824 7 7.67214 7 7.94824V14.9482C7 15.2243 7.2239 15.4482 7.5 15.4482H9C9.2761 15.4482 9.5 15.2243 9.5 14.9482V11.1982C9.5 10.3698 10.1716 9.69824 11 9.69824C11.8284 9.69824 12.5 10.3698 12.5 11.1982V14.9482C12.5 15.2243 12.7239 15.4482 13 15.4482H14.5Z" fill="white"/>
</svg>
