<svg width="12" height="12" viewBox="0 0 12 12" fill="none" xmlns="http://www.w3.org/2000/svg">
<path d="M2 3.5C2 2.7929 2 2.43934 2.21967 2.21967C2.43934 2 2.7929 2 3.5 2C4.2071 2 4.56066 2 4.78033 2.21967C5 2.43934 5 2.7929 5 3.5V8.5C5 9.2071 5 9.56065 4.78033 9.78035C4.56066 10 4.2071 10 3.5 10C2.7929 10 2.43934 10 2.21967 9.78035C2 9.56065 2 9.2071 2 8.5V3.5Z" stroke="white" strokeWidth="0.75"/>
<path d="M7 3.5C7 2.7929 7 2.43934 7.21965 2.21967C7.43935 2 7.7929 2 8.5 2C9.2071 2 9.56065 2 9.78035 2.21967C10 2.43934 10 2.7929 10 3.5V8.5C10 9.2071 10 9.56065 9.78035 9.78035C9.56065 10 9.2071 10 8.5 10C7.7929 10 7.43935 10 7.21965 9.78035C7 9.56065 7 9.2071 7 8.5V3.5Z" stroke="white" strokeWidth="0.75"/>
</svg>
