<svg width="24" height="25" viewBox="0 0 24 25" fill="none" xmlns="http://www.w3.org/2000/svg">
<path d="M17 21.7771C15.3463 21.7756 13.7183 21.3669 12.26 20.5871L11.81 20.3371C8.70075 18.6654 6.15169 16.1163 4.48 13.0071L4.23 12.5571C3.42982 11.0905 3.00713 9.44782 3 7.77712V7.10712C2.99958 6.57408 3.21196 6.06292 3.59 5.68712L5.28 3.99712C5.44413 3.83172 5.67581 3.752 5.90696 3.78138C6.13811 3.81076 6.34248 3.94592 6.46 4.14712L8.71 8.00712C8.93753 8.40001 8.87183 8.89688 8.55 9.21712L6.66 11.1071C6.50304 11.2623 6.46647 11.5021 6.57 11.6971L6.92 12.3571C8.17704 14.6855 10.0893 16.5943 12.42 17.8471L13.08 18.2071C13.275 18.3106 13.5148 18.274 13.67 18.1171L15.56 16.2271C15.8802 15.9053 16.3771 15.8396 16.77 16.0671L20.63 18.3171C20.8312 18.4346 20.9664 18.639 20.9957 18.8701C21.0251 19.1013 20.9454 19.333 20.78 19.4971L19.09 21.1871C18.7142 21.5651 18.203 21.7775 17.67 21.7771H17Z" fill="white"/>
</svg>
