<svg width="24" height="25" viewBox="0 0 24 25" fill="none" xmlns="http://www.w3.org/2000/svg">
<path d="M12.0001 2.77734C8.00613 2.77734 4.75684 6.02664 4.75684 10.0205C4.75684 14.9771 11.2388 22.2536 11.5148 22.5609C11.774 22.8496 12.2266 22.8491 12.4854 22.5609C12.7613 22.2536 19.2433 14.9771 19.2433 10.0205C19.2432 6.02664 15.994 2.77734 12.0001 2.77734ZM12.0001 13.6648C9.99062 13.6648 8.35586 12.03 8.35586 10.0205C8.35586 8.01109 9.99066 6.37632 12.0001 6.37632C14.0095 6.37632 15.6443 8.01113 15.6443 10.0206C15.6443 12.03 14.0095 13.6648 12.0001 13.6648Z" fill="white"/>
</svg>
