<svg width="1440" height="642" viewBox="0 0 1440 642" fill="none" xmlns="http://www.w3.org/2000/svg">
<path d="M1869.38 641.977C1870.74 501.995 1821.24 362.063 1732.17 254.069C1706.83 223.345 1677.11 194.294 1639.64 180.818C1531.35 141.884 1415.72 226.994 1324.68 275.319C1214.81 333.63 1106.18 394.741 991.778 443.949C927.553 471.575 852.122 495.022 789.995 462.957C727.085 430.483 703.146 354.869 677.137 289.022C646.833 212.292 605.101 138.379 543.841 83.1257C482.581 27.8726 399.768 -7.0083 317.761 1.98522C253.542 9.02987 195.026 41.6142 141.589 77.925C1.18774 173.337 -118.091 299.649 -205.315 445.285" stroke="white" stroke-opacity="0.3" strokeWidth="0.552088" stroke-miterlimit="10"/>
<path d="M1872.89 635.926C1874.09 512.208 1830.57 391.124 1753.41 287.276C1746.24 277.631 1738.86 268.147 1731.17 258.921C1705.87 228.617 1676.4 199.936 1639.45 186.355C1532.6 147.029 1418.74 227.69 1327.82 274.28C1247.22 315.588 1167.18 359.203 1084.3 398.682C1055.55 412.435 1026.55 425.68 997.177 438.173C933.466 465.27 858.929 488.402 797.266 457.833C734.83 426.878 710.113 354.19 683.387 290.92C652.238 217.2 610.025 146.157 548.881 93.0352C527.593 74.5402 503.77 58.4192 478.324 45.6273C430.712 21.6777 377.414 9.36615 324.452 14.9643C260.835 21.6888 202.744 52.9535 149.65 87.6081C42.1581 157.718 -52.8287 244.744 -131.137 344.992C-154.507 374.904 -176.386 405.986 -196.653 438.157" stroke="white" stroke-opacity="0.3" strokeWidth="0.552088" stroke-miterlimit="10"/>
<path d="M1876.4 629.88C1877.56 510.287 1831.72 395.911 1752.36 291.693C1745.16 282.236 1737.83 272.872 1730.16 263.785C1704.89 233.906 1675.68 205.589 1639.26 191.898C1533.84 152.175 1421.76 228.391 1330.96 273.253C1251.2 312.661 1171.87 355.123 1089.03 393.769C1060.49 407.196 1031.71 420.159 1002.57 432.409C939.374 458.981 865.725 481.794 804.532 452.721C742.571 423.278 717.075 353.516 689.637 292.83C657.649 222.119 614.944 153.947 553.922 102.962C532.672 85.212 508.966 69.737 483.691 57.4641C436.416 34.4751 383.608 22.6273 331.149 27.9605C268.134 34.3702 210.473 64.31 157.716 97.3028C50.8647 164.034 -43.4983 246.278 -122.033 341.917C-145.469 370.454 -167.492 400.173 -187.985 431.04" stroke="white" stroke-opacity="0.3" strokeWidth="0.552088" stroke-miterlimit="10"/>
<path d="M1879.91 623.83C1881.03 508.36 1832.9 400.692 1751.33 296.104C1744.09 286.824 1736.8 277.587 1729.16 268.644C1703.93 239.184 1674.97 211.243 1639.09 197.441C1535.1 157.326 1424.81 229.097 1334.12 272.221C1255.22 309.735 1176.48 350.844 1093.78 388.855C1065.42 401.896 1036.88 414.638 1007.98 426.646C945.292 452.688 872.533 475.185 811.814 447.609C750.328 419.678 724.054 352.848 695.898 294.741C663.065 227.038 619.88 161.737 558.98 112.883C537.763 95.8785 514.178 81.0494 489.074 69.2899C442.13 47.2616 389.825 35.8775 337.857 40.9512C275.443 47.0462 218.214 75.661 165.793 106.992C59.5768 170.35 -34.1567 247.808 -112.918 338.842C-136.42 366.004 -158.581 394.36 -179.301 423.929" stroke="white" stroke-opacity="0.3" strokeWidth="0.552088" stroke-miterlimit="10"/>
<path d="M1883.42 617.784C1884.49 506.438 1834.1 405.467 1750.28 300.52C1743 291.422 1735.76 282.307 1728.14 273.507C1702.95 244.472 1674.25 216.896 1638.89 202.983C1536.34 162.476 1427.86 229.814 1337.25 271.194C1259.23 306.825 1181.14 346.703 1098.51 383.941C1070.34 396.639 1042.03 409.116 1013.36 420.881C951.194 446.399 879.329 468.582 819.074 442.496C758.062 416.084 731.01 352.179 702.136 296.65C668.459 231.957 624.794 169.521 564.009 122.803C542.831 106.539 519.367 92.361 494.429 81.1149C447.822 60.0528 396.014 49.1325 344.537 53.9356C282.72 59.7105 225.921 87.0058 173.842 116.675C68.2665 176.654 -24.8432 249.331 -103.836 335.755C-127.41 361.543 -149.709 388.534 -170.655 416.801" stroke="white" stroke-opacity="0.3" strokeWidth="0.552088" stroke-miterlimit="10"/>
<path d="M1886.92 611.734C1887.96 504.513 1835.33 410.232 1749.23 304.933C1741.93 296.011 1734.72 287.028 1727.14 278.366C1701.98 249.751 1673.53 222.544 1638.7 208.527C1537.59 167.628 1430.93 230.539 1340.39 270.168C1263.25 303.933 1185.81 342.569 1103.24 379.034C1075.28 391.39 1047.2 403.602 1018.76 415.124C957.107 440.111 886.131 461.98 826.345 437.39C765.808 412.491 737.983 351.518 708.386 298.567C673.869 236.877 629.719 177.317 569.05 132.736C547.91 117.217 524.562 103.685 499.796 92.9528C453.525 72.8512 402.208 62.3947 351.234 66.9384C290.019 72.3985 233.65 98.3742 181.909 126.382C76.9731 182.987 -15.5127 250.878 -94.7319 332.697C-118.372 357.111 -140.815 382.738 -161.987 409.702" stroke="white" stroke-opacity="0.3" strokeWidth="0.552088" stroke-miterlimit="10"/>
<path d="M1890.43 605.683C1891.43 502.586 1836.59 414.98 1748.19 309.338C1740.87 300.593 1733.69 291.738 1726.13 283.219C1701.01 255.029 1672.82 228.187 1638.52 214.059C1538.84 172.768 1434.02 231.256 1343.54 269.124C1267.3 301.035 1190.48 338.417 1107.98 374.104C1080.21 386.117 1052.36 398.064 1024.16 409.338C963.019 433.801 892.937 455.349 833.615 432.255C773.553 408.869 744.95 350.828 714.635 300.455C679.273 241.774 634.642 185.085 574.089 142.635C552.989 127.861 529.762 114.976 505.161 104.762C459.222 85.621 408.408 75.6281 357.925 79.9068C297.311 85.0523 241.368 109.703 189.968 136.049C85.6733 189.276 -6.18874 252.385 -85.6343 329.594C-109.346 352.633 -131.927 376.897 -153.32 402.558" stroke="white" stroke-opacity="0.3" strokeWidth="0.552088" stroke-miterlimit="10"/>
<path d="M1893.94 599.637C1894.9 500.664 1837.88 419.728 1747.15 313.755C1739.8 305.181 1732.65 296.458 1725.12 288.083C1700.04 260.313 1672.09 233.84 1638.33 219.607C1540.08 177.919 1437.11 232.007 1346.68 268.103C1271.35 298.169 1195.16 334.293 1112.71 369.201C1085.14 380.878 1057.52 392.549 1029.56 403.585C968.927 427.518 899.734 448.752 840.881 427.154C781.294 405.286 751.912 350.165 720.885 302.376C684.684 246.704 639.568 192.886 579.136 152.573C558.074 138.539 534.963 126.304 510.533 116.604C464.931 98.4238 414.614 88.9003 364.622 92.914C304.61 97.7392 249.097 121.071 198.029 145.754C94.3747 195.608 3.13654 253.931 -76.5409 326.536C-100.319 348.2 -123.043 371.1 -144.663 395.459" stroke="white" stroke-opacity="0.3" strokeWidth="0.552088" stroke-miterlimit="10"/>
<path d="M1897.45 593.586C1898.37 498.737 1839.2 424.454 1746.11 318.166C1738.75 309.763 1731.62 301.178 1724.12 292.941C1699.07 265.596 1671.38 239.493 1638.15 225.15C1541.33 183.07 1440.24 232.758 1349.83 267.07C1275.42 295.309 1199.83 330.157 1117.46 364.282C1090.09 375.616 1062.68 387.022 1034.96 397.816C974.84 421.224 906.541 442.137 848.152 422.041C789.04 401.686 758.879 349.497 727.134 304.286C690.089 251.622 644.487 200.676 584.176 162.493C563.153 149.205 540.164 137.616 515.9 128.43C470.634 111.215 420.813 102.15 371.313 105.904C311.903 110.415 256.821 132.421 206.09 155.449C103.075 201.924 12.4612 255.465 -67.4426 323.46C-91.2928 343.75 -114.155 365.281 -136.001 388.347" stroke="white" stroke-opacity="0.3" strokeWidth="0.552088" stroke-miterlimit="10"/>
<path d="M1900.96 587.535C1901.84 496.81 1840.53 429.162 1745.06 322.576C1737.69 314.345 1730.58 305.892 1723.11 297.799C1698.1 270.873 1670.66 245.14 1637.96 230.687C1542.58 188.214 1443.37 233.519 1352.98 266.037C1279.51 292.465 1204.51 326.032 1122.19 359.367C1095.02 370.371 1067.84 381.501 1040.36 392.051C980.753 414.93 913.343 435.528 855.423 416.928C796.786 398.085 765.847 348.828 733.384 306.196C695.494 256.541 649.412 208.465 589.217 172.419C568.233 159.876 545.36 148.933 521.266 140.26C476.332 124.007 427.008 115.411 378.01 118.894C319.202 123.085 264.545 143.771 214.156 165.137C111.782 208.239 21.7919 256.994 -58.3382 320.384C-82.2547 339.299 -105.26 359.467 -127.327 381.23" stroke="white" stroke-opacity="0.3" strokeWidth="0.552088" stroke-miterlimit="10"/>
<path d="M1904.47 581.49C1905.31 494.89 1841.9 433.867 1744.02 326.988C1736.63 318.922 1729.55 310.608 1722.1 302.652C1697.13 276.152 1669.95 250.784 1637.77 236.225C1543.82 193.361 1446.51 234.293 1356.11 265C1283.6 289.634 1209.19 321.904 1126.92 354.444C1099.95 365.11 1073 375.97 1045.74 386.277C986.655 408.631 920.139 428.909 862.683 411.806C804.521 394.476 772.803 348.15 739.623 308.096C700.894 261.45 654.325 216.245 594.247 182.33C573.301 170.527 550.543 160.23 526.621 152.076C482.024 136.783 433.197 128.651 384.691 131.875C326.478 135.75 272.258 155.112 222.205 174.816C120.472 214.539 31.1055 258.507 -49.2565 317.294C-73.2392 334.834 -96.3883 353.638 -118.682 374.098" stroke="white" stroke-opacity="0.3" strokeWidth="0.552088" stroke-miterlimit="10"/>
<path d="M1907.97 575.439C1908.78 492.962 1843.29 438.543 1742.98 331.399C1735.58 323.499 1728.51 315.328 1721.1 307.51C1696.16 281.429 1669.23 256.431 1637.59 241.762C1545.08 198.506 1449.68 235.087 1359.26 263.967C1287.71 286.823 1213.88 317.779 1131.66 349.53C1104.9 359.865 1078.16 370.448 1051.15 380.513C992.573 402.337 926.947 422.306 869.966 406.693C812.278 390.881 779.787 347.476 745.884 310.011C706.31 266.368 659.261 224.04 599.304 192.256C578.397 181.198 555.761 171.547 532.005 163.912C487.744 149.58 439.414 141.911 391.399 144.87C333.788 148.431 279.993 166.468 230.283 184.516C129.19 220.865 40.4471 260.047 -40.1413 314.223C-64.1958 330.389 -87.4829 347.829 -109.997 366.987" stroke="white" stroke-opacity="0.3" strokeWidth="0.552088" stroke-miterlimit="10"/>
<path d="M1911.48 569.394C1912.24 491.042 1844.71 443.203 1741.93 335.817C1734.53 328.082 1727.49 320.032 1720.09 312.375C1695.23 286.67 1668.51 262.091 1637.4 247.311C1546.32 203.658 1452.84 235.905 1362.41 262.946C1291.83 284.047 1218.57 313.678 1136.4 344.622C1109.84 354.626 1083.33 364.928 1056.54 374.75C998.481 396.049 933.748 415.698 877.231 401.581C820.018 387.282 786.749 346.809 752.133 311.922C711.715 271.288 664.186 231.831 604.345 202.184C583.476 191.871 560.956 182.866 537.371 175.744C493.441 162.378 445.608 155.173 398.096 157.867C341.087 161.108 287.722 177.825 238.349 194.211C137.896 227.182 49.7775 261.583 -31.0372 311.155C-55.158 325.945 -78.5886 342.022 -101.329 359.882" stroke="white" stroke-opacity="0.3" strokeWidth="0.552088" stroke-miterlimit="10"/>
<path d="M1914.99 563.343C1915.71 489.114 1846.16 447.835 1740.89 340.227C1733.48 332.653 1726.46 324.752 1719.08 317.233C1694.27 291.947 1667.79 267.738 1637.21 252.848C1547.57 208.803 1456.03 236.738 1365.55 261.908C1295.96 281.27 1223.25 309.559 1141.13 339.703C1114.79 349.375 1088.49 359.401 1061.94 368.98C1004.39 389.75 940.549 409.084 884.501 396.463C827.763 383.677 793.716 346.135 758.382 313.826C717.125 276.202 669.11 239.615 609.385 212.099C588.549 202.525 566.156 194.172 542.731 187.564C499.138 175.158 451.802 168.417 404.781 170.847C348.374 173.773 295.44 189.165 246.403 203.889C146.591 233.487 59.096 263.101 -21.9506 308.063C-46.1431 321.478 -69.7118 336.192 -92.6787 352.749" stroke="white" stroke-opacity="0.3" strokeWidth="0.552088" stroke-miterlimit="10"/>
<path d="M1918.5 557.291C1919.18 487.187 1847.64 452.444 1739.85 344.638C1732.43 337.223 1725.42 329.467 1718.07 322.091C1693.29 297.225 1667.08 273.385 1637.03 258.391C1548.81 213.953 1459.23 237.593 1368.69 260.881C1300.09 278.525 1227.94 305.456 1145.87 334.789C1119.72 344.13 1093.65 353.88 1067.34 363.216C1010.3 383.461 947.352 402.475 891.767 391.35C835.504 380.082 800.678 345.466 764.627 315.736C722.525 281.12 674.024 247.404 614.42 222.025C593.623 213.197 571.346 205.49 548.092 199.394C504.836 187.95 457.997 181.672 411.467 183.842C355.662 186.454 303.153 200.521 254.453 213.589C155.281 239.807 68.4102 264.64 -12.8628 304.998C-37.1216 317.039 -60.8338 330.389 -84.0215 345.643" stroke="white" stroke-opacity="0.3" strokeWidth="0.552088" stroke-miterlimit="10"/>
<path d="M1922.01 551.247C1922.65 485.266 1849.14 457.033 1738.81 349.05C1731.39 341.795 1724.39 334.182 1717.07 326.95C1692.33 302.503 1666.36 279.034 1636.84 263.929C1550.07 219.099 1462.45 238.472 1371.84 259.843C1304.24 275.787 1232.63 301.349 1150.6 329.87C1124.67 338.886 1098.81 348.354 1072.74 357.447C1016.21 377.162 954.154 395.861 899.039 386.233C843.25 376.477 807.646 344.788 770.877 317.641C727.936 286.034 678.949 255.189 619.467 231.941C598.708 223.858 576.553 216.797 553.465 211.221C510.54 200.737 464.197 194.929 418.17 196.833C362.966 199.125 310.888 211.872 262.525 223.278C163.994 246.124 77.7465 266.17 -3.75279 301.918C-28.0833 312.579 -51.9336 324.564 -75.3477 338.521" stroke="white" stroke-opacity="0.3" strokeWidth="0.552088" stroke-miterlimit="10"/>
<path d="M1925.51 545.195C1926.11 483.339 1850.67 461.587 1737.76 353.46C1730.35 346.361 1723.35 338.896 1716.06 331.807C1691.35 307.786 1665.61 284.742 1636.65 269.471C1551.21 224.421 1465.66 239.382 1374.97 258.816C1308.39 273.087 1237.32 297.258 1155.33 324.956C1129.61 333.646 1103.97 342.833 1078.13 351.683C1022.12 370.873 960.955 389.252 906.304 381.12C850.984 372.877 814.607 344.119 777.126 319.551C733.34 290.953 683.873 262.979 624.507 241.867C603.787 234.524 581.748 228.114 558.83 223.052C516.242 213.534 470.397 208.184 424.861 209.823C370.254 211.8 318.606 223.223 270.585 232.967C172.694 252.434 87.0707 267.699 5.33956 298.842C-19.0572 308.128 -43.051 318.751 -66.6914 331.41" stroke="white" stroke-opacity="0.3" strokeWidth="0.552088" stroke-miterlimit="10"/>
<path d="M1929.03 539.151C1929.58 481.419 1852.23 466.121 1736.72 357.878C1729.31 350.933 1722.32 343.623 1715.06 336.672C1690.39 313.071 1664.9 290.396 1636.47 275.021C1552.47 229.573 1468.89 240.322 1378.13 257.795C1312.57 270.416 1242.03 293.179 1160.08 320.054C1134.57 328.424 1109.14 337.324 1083.54 345.931C1028.04 364.591 967.763 382.656 913.581 376.025C858.736 369.301 821.586 343.469 783.382 321.479C738.751 295.89 688.804 270.786 629.554 251.805C608.872 245.208 586.949 239.444 564.203 234.895C521.951 226.337 476.603 221.457 431.558 222.832C377.553 224.488 326.335 234.597 278.652 242.679C181.401 258.773 96.3961 269.251 14.444 295.785C-10.0245 303.696 -34.1508 312.955 -58.0176 324.311" stroke="white" stroke-opacity="0.3" strokeWidth="0.552088" stroke-miterlimit="10"/>
<path d="M1932.53 533.099C1933.05 479.486 1853.81 470.62 1735.67 362.289C1728.26 355.498 1721.28 348.337 1714.04 341.53C1689.41 318.354 1664.17 296.044 1636.27 280.558C1553.7 234.718 1472.12 241.288 1381.26 256.757C1316.73 267.749 1246.71 289.087 1164.81 315.129C1139.5 323.179 1114.29 331.786 1088.92 340.156C1033.94 358.292 974.558 376.041 920.84 370.901C866.47 365.69 828.542 342.789 789.62 323.378C744.15 300.792 693.716 278.559 634.582 261.715C613.94 255.863 592.138 250.745 569.557 246.709C527.637 239.112 482.785 234.696 438.237 235.805C384.834 237.147 334.047 245.931 286.7 252.351C190.09 265.066 105.709 270.758 23.5306 292.692C-1.00421 299.229 -25.274 307.124 -49.3672 317.178" stroke="white" stroke-opacity="0.3" strokeWidth="0.552088" stroke-miterlimit="10"/>
<path d="M1936.04 527.048C1936.52 477.559 1855.43 475.08 1734.64 366.694C1727.23 360.053 1720.25 353.052 1713.04 346.383C1688.45 323.626 1663.47 301.686 1636.1 286.095C1554.96 239.858 1475.37 242.281 1384.41 255.725C1320.91 265.11 1251.42 285.013 1169.55 310.216C1144.45 317.945 1119.46 326.265 1094.33 334.386C1039.86 351.992 981.366 369.427 928.117 365.784C874.222 362.085 835.515 342.11 795.875 325.282C749.56 305.705 698.647 286.343 639.634 271.636C619.03 266.524 597.344 262.057 574.935 258.54C533.352 251.904 488.997 247.951 444.946 248.801C392.144 249.828 341.782 257.287 294.778 262.046C198.808 271.387 115.051 272.293 32.6406 289.617C8.03953 294.779 -16.3739 301.311 -40.6934 310.061" stroke="white" stroke-opacity="0.3" strokeWidth="0.552088" stroke-miterlimit="10"/>
<path d="M1939.55 521.003C1939.98 475.638 1857.07 479.514 1733.59 371.111C1726.19 364.618 1719.21 357.772 1712.03 351.247C1687.47 328.915 1662.74 307.339 1635.91 291.638C1556.21 245.003 1478.62 243.319 1387.55 254.692C1325.08 262.493 1256.12 280.938 1174.28 305.296C1149.39 312.706 1124.62 320.738 1099.72 328.617C1045.77 345.698 988.162 362.813 935.388 360.665C881.968 358.485 842.483 341.436 802.125 327.187C754.966 310.619 703.566 294.128 644.675 281.551C624.11 277.184 602.545 273.364 580.301 270.36C539.055 264.69 495.197 261.201 451.637 261.781C399.437 262.488 349.506 268.627 302.838 271.729C207.509 277.692 124.376 273.816 41.7391 286.531C17.0663 290.318 -7.48506 295.486 -32.0254 302.934" stroke="white" stroke-opacity="0.3" strokeWidth="0.552088" stroke-miterlimit="10"/>
<path d="M1943.05 514.952C1943.45 473.711 1858.73 483.908 1732.54 375.522C1725.16 369.173 1718.17 362.487 1711.02 356.105C1686.49 334.198 1662.06 312.937 1635.72 297.18C1557.54 249.993 1481.86 244.395 1390.69 253.665C1329.25 259.909 1260.82 276.875 1179.01 300.388C1154.34 307.482 1129.78 315.223 1105.12 322.858C1051.67 339.41 994.964 356.21 942.653 355.558C889.708 354.89 849.444 340.773 808.374 329.102C760.376 315.543 708.49 301.923 649.715 291.483C629.188 287.861 607.74 284.687 585.667 282.197C544.752 277.488 501.396 274.462 458.328 274.782C406.724 275.174 357.224 279.989 310.893 281.429C216.204 284.019 133.695 275.356 50.8316 283.467C26.0925 285.879 1.39755 289.678 -23.3691 295.833" stroke="white" stroke-opacity="0.3" strokeWidth="0.552088" stroke-miterlimit="10"/>
<path d="M1946.57 508.907C1946.92 471.79 1860.42 488.27 1731.5 379.939C1724.12 373.739 1717.14 367.214 1710.02 360.97C1685.52 339.488 1661.34 318.591 1635.54 302.724C1558.79 255.14 1485.11 245.511 1393.84 252.639C1333.43 257.354 1265.53 272.823 1183.76 295.475C1159.29 302.255 1134.95 309.703 1110.52 317.095C1057.59 333.122 1001.77 349.602 949.924 350.447C897.454 351.291 856.412 340.106 814.624 331.013C765.781 320.463 713.415 309.714 654.756 301.405C634.262 298.523 612.941 295.994 591.034 294.023C550.455 290.275 507.591 287.713 465.025 287.774C414.023 287.851 364.954 291.34 318.959 291.119C224.911 290.33 143.025 276.886 59.9301 280.387C35.1193 281.425 10.2864 283.859 -14.7012 288.712" stroke="white" stroke-opacity="0.3" strokeWidth="0.552088" stroke-miterlimit="10"/>
<path d="M1950.07 502.856C1950.39 469.863 1862.13 492.582 1730.46 384.345C1723.09 378.288 1716.1 371.923 1709.01 365.822C1684.55 344.766 1660.63 324.233 1635.35 308.262C1560.04 260.285 1488.35 246.665 1396.98 251.601C1337.6 254.808 1270.23 268.76 1188.49 290.556C1164.23 297.021 1140.1 304.171 1115.91 311.326C1063.49 326.823 1008.57 342.988 957.19 345.329C905.194 347.692 863.379 339.427 820.868 332.918C771.18 325.376 718.334 317.498 659.796 311.326C639.341 309.189 618.136 307.306 596.4 305.854C556.153 303.066 513.791 300.974 471.716 300.764C421.316 300.521 372.677 302.691 327.019 300.808C233.611 296.646 152.35 278.416 69.0284 277.311C44.1513 276.975 19.1748 278.046 -6.03906 281.596" stroke="white" stroke-opacity="0.3" strokeWidth="0.552088" stroke-miterlimit="10"/>
<path d="M1953.58 496.806C1953.86 467.937 1863.88 496.855 1729.42 388.757C1722.06 382.838 1715.05 376.655 1708 370.681C1683.53 350.094 1659.9 329.882 1635.16 313.805C1561.28 265.437 1491.59 247.869 1400.12 250.574C1341.77 252.297 1274.94 264.724 1193.22 285.643C1169.18 291.799 1145.26 298.65 1121.31 305.562C1069.41 320.535 1015.37 336.38 964.461 340.217C912.94 344.093 870.346 338.759 827.117 334.829C776.59 330.29 723.259 325.288 664.837 321.247C644.42 319.856 623.331 318.619 601.766 317.681C561.856 315.859 519.991 314.225 478.407 313.755C428.609 313.198 380.395 314.042 335.08 310.503C242.312 302.962 161.674 279.951 78.1266 274.237C53.1777 272.525 28.0633 272.233 2.62305 274.48" stroke="white" stroke-opacity="0.3" strokeWidth="0.552088" stroke-miterlimit="10"/>
<path d="M1957.09 490.759C1957.33 466.015 1865.65 501.089 1728.37 393.172C1721.03 387.397 1714.02 381.38 1707 375.538C1682.57 355.376 1659.19 335.534 1634.98 319.341C1562.54 270.581 1494.82 249.116 1403.27 249.535C1345.93 249.8 1279.65 260.676 1197.96 280.723C1174.13 286.569 1150.43 293.123 1126.71 299.786C1075.32 314.229 1022.18 329.765 971.731 335.092C920.685 340.481 877.313 338.079 833.367 336.727C781.995 335.197 728.183 333.066 669.877 331.156C649.499 330.505 628.531 329.919 607.132 329.494C567.558 328.633 526.185 327.468 485.099 326.728C435.902 325.856 388.119 325.376 343.14 320.175C251.013 309.26 170.999 281.463 87.2194 271.144C62.2043 268.058 36.9462 266.402 11.2852 267.351" stroke="white" stroke-opacity="0.3" strokeWidth="0.552088" stroke-miterlimit="10"/>
<path d="M1960.6 484.708C1960.8 464.088 1867.45 505.274 1727.34 397.583C1720 391.946 1712.99 386.094 1705.99 380.397C1681.6 360.654 1658.47 341.182 1634.79 324.884C1563.79 275.732 1498.03 250.413 1406.41 248.508C1350.08 247.338 1284.35 256.652 1202.7 275.809C1179.07 281.352 1155.59 287.602 1132.1 294.022C1081.23 307.941 1028.97 323.156 978.997 329.985C928.426 336.887 884.275 337.417 839.617 338.642C787.406 340.122 733.108 340.862 674.918 341.088C654.579 341.182 633.726 341.243 612.499 341.331C573.256 341.43 532.385 340.729 491.796 339.73C443.201 338.537 395.843 336.738 351.206 329.875C259.72 315.581 180.329 282.997 96.3236 268.074C71.2422 263.613 45.8406 260.593 19.9531 260.24" stroke="white" stroke-opacity="0.3" strokeWidth="0.552088" stroke-miterlimit="10"/>
<path d="M1964.11 478.663C1964.27 462.167 1869.27 509.415 1726.29 402C1718.97 396.502 1711.94 390.815 1704.98 385.261C1680.62 365.944 1657.76 346.836 1634.6 330.428C1565.03 280.878 1501.23 251.761 1409.56 247.482C1354.22 244.898 1289.07 252.633 1207.44 270.901C1184.03 276.141 1160.75 282.087 1137.5 288.265C1087.14 301.653 1035.78 316.554 986.269 324.879C936.172 333.298 891.243 336.749 845.867 340.558C792.811 345.047 738.027 348.658 679.959 351.015C659.659 351.854 638.928 352.561 617.86 353.163C578.954 354.223 538.58 353.985 498.482 352.721C450.483 351.214 403.561 348.089 359.262 339.57C268.416 321.903 189.649 284.533 105.417 265C80.2637 259.164 54.7241 254.78 28.6104 253.124" stroke="white" stroke-opacity="0.3" strokeWidth="0.552088" stroke-miterlimit="10"/>
<path d="M1967.62 472.613C1967.74 460.24 1871.11 513.5 1725.25 406.406C1717.94 401.04 1710.92 395.53 1703.98 390.114C1679.65 371.216 1657.04 352.478 1634.42 335.965C1566.28 286.023 1504.41 253.152 1412.71 246.444C1358.35 242.469 1293.78 248.614 1212.17 265.977C1188.97 270.913 1165.92 276.549 1142.9 282.49C1093.05 295.354 1042.58 309.934 993.544 319.756C943.922 329.688 898.215 336.07 852.121 342.458C798.221 349.955 742.957 356.437 685.01 360.931C664.748 362.51 644.133 363.868 623.236 364.988C584.667 367.015 544.785 367.241 505.183 365.712C457.787 363.884 411.295 359.44 367.327 349.26C277.121 328.219 198.979 286.062 114.515 261.925C89.2951 254.714 63.612 248.962 37.2773 246.008" stroke="white" stroke-opacity="0.3" strokeWidth="0.552088" stroke-miterlimit="10"/>
<path d="M1971.12 466.561C1971.2 458.313 1872.98 517.535 1724.21 410.816C1716.91 405.583 1709.88 400.244 1702.97 394.972C1678.69 376.499 1656.33 358.131 1634.23 341.502C1567.53 291.168 1507.56 254.592 1415.85 245.411C1362.46 240.067 1298.49 244.61 1216.91 261.063C1193.92 265.7 1171.08 271.028 1148.3 276.725C1098.97 289.059 1049.39 303.325 1000.82 314.643C951.669 326.087 905.183 335.401 858.371 344.367C803.632 354.873 747.882 364.226 690.05 370.851C669.827 373.175 649.334 375.179 628.603 376.813C590.365 379.8 550.985 380.49 511.88 378.702C465.085 376.559 419.019 370.79 375.393 358.948C285.828 334.529 208.309 287.59 123.619 258.843C98.3274 250.258 72.5063 243.142 45.9453 238.891" stroke="white" stroke-opacity="0.3" strokeWidth="0.552088" stroke-miterlimit="10"/>
<path d="M1974.63 460.516C1974.67 456.392 1874.87 521.522 1723.16 415.234C1715.88 410.132 1708.84 404.97 1701.96 399.836C1677.71 381.783 1655.6 363.785 1634.04 347.051C1568.77 296.325 1510.68 256.094 1418.98 244.384C1366.54 237.688 1303.21 240.719 1221.63 256.149C1198.87 260.516 1176.23 265.507 1153.69 270.962C1104.87 282.771 1056.18 296.717 1008.08 309.531C959.404 322.494 912.145 334.734 864.61 346.278C809.026 359.793 752.796 372.016 695.08 380.778C674.896 383.848 654.518 386.498 633.959 388.645C596.058 392.593 557.174 393.746 518.561 391.693C472.368 389.236 426.732 382.147 383.443 368.643C294.518 340.851 217.623 289.126 132.707 255.774C107.349 245.814 81.3843 237.334 54.6025 231.78" stroke="white" stroke-opacity="0.3" strokeWidth="0.552088" stroke-miterlimit="10"/>
<path d="M1978.14 454.465C1978.14 454.465 1876.79 525.453 1722.12 419.645C1567.45 313.837 1514.2 199.676 1226.38 251.236C1027.48 286.868 839.849 374.263 639.336 400.471C556.838 411.253 470.375 406.174 391.515 378.332C303.23 347.161 226.959 290.655 141.811 252.693C116.381 241.359 90.2842 231.515 63.2705 224.658" stroke="white" stroke-opacity="0.3" strokeWidth="0.552088" stroke-miterlimit="10"/>
</svg>
