<svg width="934" height="722" viewBox="0 0 934 722" fill="none" xmlns="http://www.w3.org/2000/svg">
<g opacity="0.1">
<path d="M26.832 260.611C26.832 260.611 299.067 35.2864 432.209 74.805C565.35 114.324 797.84 421.47 714.381 568.755C630.922 716.04 915.082 721.429 915.082 721.429" stroke="#00FFFF" strokeWidth="0.552088" stroke-miterlimit="10"/>
<path d="M30.8291 265.018C30.9064 264.504 291.222 33.5755 426.058 71.2975C560.895 109.02 783.083 415.906 706.243 561.909C629.403 707.911 913 715.611 913 715.611" stroke="#09FCFF" strokeWidth="0.552088" stroke-miterlimit="10"/>
<path d="M34.8203 269.429C34.9694 268.401 283.365 31.8683 419.908 67.7889C556.45 103.709 768.32 410.346 698.105 555.067C627.89 699.787 910.918 709.792 910.918 709.792" stroke="#12F9FF" strokeWidth="0.552088" stroke-miterlimit="10"/>
<path d="M38.8184 273.837C39.0447 272.295 275.515 30.1532 413.764 64.2822C552.012 98.4112 753.563 404.789 689.974 548.226C626.384 691.664 908.844 703.98 908.844 703.98" stroke="#1BF6FF" strokeWidth="0.552088" stroke-miterlimit="10"/>
<path d="M42.8096 278.248C43.1132 276.197 267.659 28.4463 407.608 60.7788C547.556 93.1113 738.794 399.229 681.83 541.384C624.865 683.539 906.756 698.166 906.756 698.166" stroke="#24F3FF" strokeWidth="0.552088" stroke-miterlimit="10"/>
<path d="M46.8008 282.66C47.1762 280.094 259.802 26.7344 401.457 57.2704C543.112 87.8063 724.037 393.67 673.692 534.542C623.352 675.415 904.675 692.347 904.675 692.347" stroke="#2DF0FF" strokeWidth="0.552088" stroke-miterlimit="10"/>
<path d="M50.7988 287.065C51.2515 283.986 251.952 25.0219 395.308 53.7613C538.663 82.5007 709.275 388.11 665.56 527.695C621.846 667.285 902.6 686.528 902.6 686.528" stroke="#36EEFF" strokeWidth="0.552088" stroke-miterlimit="10"/>
<path d="M54.79 291.477C55.3145 287.884 244.096 23.3156 389.157 50.2535C534.218 77.1964 694.512 382.546 657.422 520.853C620.333 659.161 900.518 680.714 900.518 680.714" stroke="#3FEBFF" strokeWidth="0.552088" stroke-miterlimit="10"/>
<path d="M58.7812 295.888C59.383 291.781 236.239 21.6034 383.001 46.7497C529.762 71.8961 679.748 376.991 649.279 514.011C618.809 651.031 898.43 674.9 898.43 674.9" stroke="#48E8FF" strokeWidth="0.552088" stroke-miterlimit="10"/>
<path d="M62.7793 300.296C63.4584 295.675 228.389 19.8929 376.857 43.2428C525.325 66.5926 664.992 371.428 641.147 507.171C617.302 642.913 896.35 669.083 896.35 669.083" stroke="#51E5FF" strokeWidth="0.552088" stroke-miterlimit="10"/>
<path d="M66.7695 304.707C67.5204 299.577 220.532 18.1809 370.7 39.7342C520.868 61.2875 650.222 365.869 633.002 500.324C615.783 634.779 894.262 663.263 894.262 663.263" stroke="#5AE2FF" strokeWidth="0.552088" stroke-miterlimit="10"/>
<path d="M70.7676 309.112C71.5957 303.468 212.682 16.4681 364.556 36.2249C516.43 55.9817 635.471 360.308 624.871 493.481C614.271 626.653 892.187 657.449 892.187 657.449" stroke="#62DFFF" strokeWidth="0.552088" stroke-miterlimit="10"/>
<path d="M74.7588 313.524C75.6642 307.366 204.825 14.757 358.405 32.7222C511.985 50.6875 620.708 354.749 616.733 486.644C612.758 618.539 890.105 651.635 890.105 651.635" stroke="#6BDCFF" strokeWidth="0.552088" stroke-miterlimit="10"/>
<path d="M78.75 317.936C79.7272 311.264 196.969 13.0503 352.249 29.2141C507.53 45.3778 605.939 349.19 608.589 479.798C611.239 610.405 888.018 645.817 888.018 645.817" stroke="#74D9FF" strokeWidth="0.552088" stroke-miterlimit="10"/>
<path d="M82.748 322.343C83.8025 315.157 189.119 11.3395 346.105 25.7068C503.092 40.074 591.183 343.632 600.458 472.957C609.733 602.282 885.943 640.004 885.943 640.004" stroke="#7DD6FF" strokeWidth="0.552088" stroke-miterlimit="10"/>
<path d="M86.7393 326.754C87.8655 319.054 181.262 9.62753 339.949 22.2032C498.636 34.7789 576.42 338.072 592.314 466.115C608.209 594.157 883.856 634.185 883.856 634.185" stroke="#86D3FF" strokeWidth="0.552088" stroke-miterlimit="10"/>
<path d="M90.7305 331.165C91.934 322.956 173.406 7.91981 333.798 18.694C494.191 29.4731 561.656 332.512 584.176 459.272C606.696 586.032 881.774 628.37 881.774 628.37" stroke="#8FD1FF" strokeWidth="0.552088" stroke-miterlimit="10"/>
<path d="M94.7285 335.571C96.0094 326.848 165.556 6.20262 327.649 15.1852C489.742 24.1679 546.895 326.952 576.039 452.425C605.184 577.902 879.693 622.551 879.693 622.551" stroke="#98CEFF" strokeWidth="0.552088" stroke-miterlimit="10"/>
<path d="M98.7197 339.982C100.072 330.744 157.699 4.49533 321.498 11.6814C485.298 18.8675 532.137 321.393 567.901 445.587C603.665 569.782 877.612 616.736 877.612 616.736" stroke="#A1CBFF" strokeWidth="0.552088" stroke-miterlimit="10"/>
<path d="M102.711 344.39C104.141 334.639 149.843 2.7857 315.348 8.17029C480.853 13.5549 517.374 315.83 559.763 438.738C602.152 561.645 875.53 610.915 875.53 610.915" stroke="#AAC8FF" strokeWidth="0.552088" stroke-miterlimit="10"/>
<path d="M106.709 348.802C108.216 338.537 141.993 1.07411 309.198 4.66716C476.404 8.26021 502.612 310.276 551.632 431.901C600.652 553.526 873.455 605.106 873.455 605.106" stroke="#B3C5FF" strokeWidth="0.552088" stroke-miterlimit="10"/>
<path d="M110.7 353.213C112.279 342.433 134.142 -0.633245 303.048 1.16328C471.954 2.95981 487.854 304.716 543.493 425.064C599.133 545.411 871.373 599.292 871.373 599.292" stroke="#BCC2FF" strokeWidth="0.552088" stroke-miterlimit="10"/>
<path d="M105.477 343.885C106.984 333.62 140.197 11.5926 304.466 11.9319C468.734 12.2762 487.831 292.395 546.038 408.974C604.244 525.554 874.679 595.069 874.304 594.74" stroke="#B3B9FF" strokeWidth="0.552088" stroke-miterlimit="10"/>
<path d="M100.254 334.565C101.684 324.813 146.254 23.8254 305.885 22.7126C465.516 21.5997 487.815 280.08 548.583 392.897C609.351 505.714 877.992 590.859 877.236 590.2" stroke="#AAB0FF" strokeWidth="0.552088" stroke-miterlimit="10"/>
<path d="M95.0312 325.242C96.3839 316.005 152.31 36.0564 307.304 33.4914C462.303 30.9263 487.798 267.763 551.128 376.817C614.458 485.872 881.305 586.652 880.167 585.654" stroke="#A1A6FF" strokeWidth="0.552088" stroke-miterlimit="10"/>
<path d="M89.8027 315.92C91.0836 307.197 158.361 48.2877 308.722 44.2704C459.084 40.2482 487.776 255.452 553.673 360.738C619.57 466.025 884.611 582.44 883.099 581.112" stroke="#989DFF" strokeWidth="0.552088" stroke-miterlimit="10"/>
<path d="M84.5801 306.598C85.7836 298.389 164.418 60.5237 310.141 55.0492C455.865 49.5748 487.759 243.136 556.218 344.664C624.677 446.193 887.924 578.232 886.03 576.576" stroke="#8F94FF" strokeWidth="0.552088" stroke-miterlimit="10"/>
<path d="M79.3574 297.269C80.4837 289.569 170.474 72.7482 311.56 65.8166C452.647 58.885 487.743 230.808 558.763 328.574C629.784 426.339 891.237 574.009 888.968 572.018" stroke="#868BFF" strokeWidth="0.552088" stroke-miterlimit="10"/>
<path d="M74.1348 287.949C75.1893 280.763 176.531 84.9818 312.985 76.598C449.439 68.2142 487.726 218.499 561.314 312.497C634.902 406.495 894.555 569.799 891.905 567.479" stroke="#7D81FF" strokeWidth="0.552088" stroke-miterlimit="10"/>
<path d="M68.9121 278.626C69.8893 271.954 182.587 97.2119 314.404 87.3759C446.215 77.54 487.71 206.181 563.859 296.417C640.009 386.652 897.862 565.586 894.836 562.936" stroke="#7478FF" strokeWidth="0.552088" stroke-miterlimit="10"/>
<path d="M63.6895 269.305C64.5949 263.147 188.649 109.444 315.823 98.1557C442.996 86.8675 487.693 193.866 566.405 280.338C645.116 366.811 901.175 561.375 897.768 558.396" stroke="#6B6FFF" strokeWidth="0.552088" stroke-miterlimit="10"/>
<path d="M58.4609 259.985C59.2891 254.341 194.7 121.677 317.236 108.937C439.777 96.1916 487.666 181.552 568.944 264.262C650.222 346.972 904.481 557.165 900.694 553.852" stroke="#6266FF" strokeWidth="0.552088" stroke-miterlimit="10"/>
<path d="M53.2383 250.656C53.9891 245.526 200.756 133.907 318.66 119.704C436.564 105.502 487.655 169.229 571.495 248.176C655.335 327.123 907.8 552.952 903.631 549.304" stroke="#5A5CFF" strokeWidth="0.552088" stroke-miterlimit="10"/>
<path d="M48.0156 241.335C48.6947 236.713 206.813 146.139 320.079 130.484C433.346 114.829 487.638 156.913 574.04 232.097C660.442 307.282 911.107 548.74 906.568 544.763" stroke="#5153FF" strokeWidth="0.552088" stroke-miterlimit="10"/>
<path d="M42.793 232.012C43.3947 227.905 212.869 158.369 321.498 141.262C430.127 124.155 487.616 144.596 576.585 216.018C665.554 287.439 914.419 544.527 909.5 540.216" stroke="#484AFF" strokeWidth="0.552088" stroke-miterlimit="10"/>
<path d="M37.5703 222.69C38.0948 219.097 218.926 170.601 322.917 152.042C426.909 133.483 487.6 132.285 579.13 199.939C670.661 267.593 917.732 540.316 912.432 535.675" stroke="#3F41FF" strokeWidth="0.552088" stroke-miterlimit="10"/>
<path d="M32.3418 213.364C32.7945 210.285 224.976 182.828 324.336 162.817C423.695 142.8 487.583 119.964 581.681 183.856C675.779 247.747 921.044 536.1 915.369 531.129" stroke="#3637FF" strokeWidth="0.552088" stroke-miterlimit="10"/>
<path d="M27.1191 204.041C27.4946 201.476 231.033 195.059 325.755 173.59C420.477 152.122 487.561 107.643 584.226 167.776C680.891 227.91 924.357 531.887 918.3 526.582" stroke="#2D2EFF" strokeWidth="0.552088" stroke-miterlimit="10"/>
<path d="M21.8965 194.718C22.2001 192.667 237.09 207.293 327.174 184.368C417.258 161.447 487.544 95.3299 586.771 151.696C685.998 208.062 927.669 527.674 921.232 522.04" stroke="#2425FF" strokeWidth="0.552088" stroke-miterlimit="10"/>
<path d="M16.6738 185.398C16.9002 183.856 243.152 219.527 328.598 195.149C414.045 170.771 487.533 83.0156 589.322 135.619C691.111 188.222 930.987 523.464 924.175 517.5" stroke="#1B1CFF" strokeWidth="0.552088" stroke-miterlimit="10"/>
<path d="M11.4512 176.076C11.6002 175.048 249.208 231.759 330.017 205.928C410.826 180.098 487.517 70.7 591.867 119.541C696.218 168.381 934.295 519.253 927.107 512.96" stroke="#1212FF" strokeWidth="0.552088" stroke-miterlimit="10"/>
<path d="M6.22852 166.749C6.30581 166.235 255.265 243.985 331.436 216.698C407.608 189.41 487.495 58.3789 594.413 103.452C701.33 148.525 937.607 515.036 930.038 508.404" stroke="#0909FF" strokeWidth="0.552088" stroke-miterlimit="10"/>
<path d="M1 157.426C1 157.426 261.315 256.215 332.849 227.475C404.389 198.736 487.473 46.061 596.952 87.3711C706.431 128.681 940.914 510.822 932.964 503.861" stroke="#0000FF" strokeWidth="0.552088" stroke-miterlimit="10"/>
</g>
</svg>
