<svg width="18" height="17" viewBox="0 0 18 17" fill="none" xmlns="http://www.w3.org/2000/svg">
<path d="M17.9737 3.16564C17.5093 3.78516 16.9479 4.32557 16.3112 4.766C16.3112 4.92783 16.3112 5.08966 16.3112 5.26049C16.3163 8.19934 15.1424 11.0173 13.0527 13.0827C10.9629 15.1481 8.13206 16.2881 5.19491 16.2471C3.49685 16.2528 1.82053 15.8651 0.297277 15.1143C0.215137 15.0784 0.162166 14.9972 0.162476 14.9075V14.8086C0.162476 14.6795 0.267087 14.5749 0.396127 14.5749C2.06528 14.5198 3.67488 13.9411 4.9972 12.9206C3.48639 12.8901 2.12705 11.9951 1.50146 10.6189C1.46987 10.5438 1.4797 10.4575 1.52743 10.3914C1.57515 10.3253 1.65386 10.2889 1.73511 10.2953C2.19428 10.3414 2.65804 10.2987 3.10106 10.1694C1.43325 9.82324 0.180067 8.43864 0.000716559 6.74394C-0.00565344 6.66264 0.0307765 6.58394 0.0968565 6.53614C0.162926 6.48844 0.249097 6.47854 0.324237 6.51024C0.771797 6.70774 1.25495 6.81174 1.7441 6.81584C0.282696 5.8567 -0.348534 4.03229 0.207406 2.37446C0.264796 2.21337 0.402667 2.09436 0.570356 2.06118C0.738037 2.02799 0.910817 2.08552 1.02518 2.21263C2.99725 4.31149 5.7069 5.5622 8.58276 5.70103C8.50916 5.40709 8.47296 5.105 8.47496 4.80196C8.50186 3.21296 9.48506 1.79745 10.9643 1.21811C12.4434 0.638784 14.1258 1.01027 15.2239 2.15868C15.9723 2.01609 16.6959 1.76469 17.3716 1.41245C17.4211 1.38155 17.4839 1.38155 17.5334 1.41245C17.5643 1.46197 17.5643 1.52476 17.5334 1.57428C17.2061 2.32376 16.6532 2.95236 15.9518 3.37243C16.566 3.3012 17.1694 3.15631 17.7491 2.94088C17.7979 2.90766 17.862 2.90766 17.9108 2.94088C17.9517 2.95958 17.9823 2.99535 17.9944 3.03866C18.0065 3.08197 17.9989 3.12842 17.9737 3.16564Z" fill="white"/>
</svg>
